{
    "asset" : {
        "generator" : "Khronos glTF Blender I/O v1.8.19",
        "version" : "2.0"
    },
    "scene" : 0,
    "scenes" : [
        {
            "name" : "Scene",
            "nodes" : [
                0
            ]
        }
    ],
    "nodes" : [
        {
            "mesh" : 0,
            "name" : "\u98de\u673a02"
        }
    ],
    "materials" : [
        {
            "doubleSided" : true,
            "name" : "all maps",
            "pbrMetallicRoughness" : {
                "baseColorTexture" : {
                    "index" : 0
                },
                "metallicFactor" : 0,
                "roughnessFactor" : 0.5
            }
        },
        {
            "doubleSided" : true,
            "name" : "AirChina-2",
            "pbrMetallicRoughness" : {
                "baseColorFactor" : [
                    0.36078399419784546,
                    0.36078399419784546,
                    0.36078399419784546,
                    1
                ],
                "metallicFactor" : 0,
                "roughnessFactor" : 0.5
            }
        },
        {
            "doubleSided" : true,
            "name" : "\u8f6e\u5b50\u4fa7\u9762.001",
            "pbrMetallicRoughness" : {
                "baseColorTexture" : {
                    "index" : 1
                },
                "metallicFactor" : 0,
                "roughnessFactor" : 0.5
            }
        },
        {
            "doubleSided" : true,
            "name" : "\u98de\u673a\uff0d\u8f6e\u5b502",
            "pbrMetallicRoughness" : {
                "baseColorTexture" : {
                    "index" : 2
                },
                "metallicFactor" : 0,
                "roughnessFactor" : 0.5
            }
        }
    ],
    "meshes" : [
        {
            "name" : "Obj3d66-596845-8-293",
            "primitives" : [
                {
                    "attributes" : {
                        "POSITION" : 0,
                        "NORMAL" : 1,
                        "TEXCOORD_0" : 2
                    },
                    "indices" : 3,
                    "material" : 0
                },
                {
                    "attributes" : {
                        "POSITION" : 4,
                        "NORMAL" : 5,
                        "TEXCOORD_0" : 6
                    },
                    "indices" : 7,
                    "material" : 1
                },
                {
                    "attributes" : {
                        "POSITION" : 8,
                        "NORMAL" : 9,
                        "TEXCOORD_0" : 10
                    },
                    "indices" : 11,
                    "material" : 2
                },
                {
                    "attributes" : {
                        "POSITION" : 12,
                        "NORMAL" : 13,
                        "TEXCOORD_0" : 14
                    },
                    "indices" : 15,
                    "material" : 3
                }
            ]
        }
    ],
    "textures" : [
        {
            "sampler" : 0,
            "source" : 0
        },
        {
            "sampler" : 0,
            "source" : 1
        },
        {
            "sampler" : 0,
            "source" : 2
        }
    ],
    "images" : [
        {
            "bufferView" : 4,
            "mimeType" : "image/jpeg",
            "name" : "3d66Model-596845-files-13"
        },
        {
            "bufferView" : 13,
            "mimeType" : "image/jpeg",
            "name" : "3d66Model-596845-files-8"
        },
        {
            "bufferView" : 18,
            "mimeType" : "image/jpeg",
            "name" : "3d66Model-596845-files-7"
        }
    ],
    "accessors" : [
        {
            "bufferView" : 0,
            "componentType" : 5126,
            "count" : 1240,
            "max" : [
                9.471803665161133,
                7.889361381530762,
                9.451513290405273
            ],
            "min" : [
                -9.471803665161133,
                0.5233926773071289,
                -9.451513290405273
            ],
            "type" : "VEC3"
        },
        {
            "bufferView" : 1,
            "componentType" : 5126,
            "count" : 1240,
            "type" : "VEC3"
        },
        {
            "bufferView" : 2,
            "componentType" : 5126,
            "count" : 1240,
            "type" : "VEC2"
        },
        {
            "bufferView" : 3,
            "componentType" : 5123,
            "count" : 4290,
            "type" : "SCALAR"
        },
        {
            "bufferView" : 5,
            "componentType" : 5126,
            "count" : 352,
            "max" : [
                1.2395474910736084,
                1.8849616050720215,
                7.22034215927124
            ],
            "min" : [
                -7.251990795135498,
                0.2546539306640625,
                -1.230309247970581
            ],
            "type" : "VEC3"
        },
        {
            "bufferView" : 6,
            "componentType" : 5126,
            "count" : 352,
            "type" : "VEC3"
        },
        {
            "bufferView" : 7,
            "componentType" : 5126,
            "count" : 352,
            "type" : "VEC2"
        },
        {
            "bufferView" : 8,
            "componentType" : 5123,
            "count" : 1020,
            "type" : "SCALAR"
        },
        {
            "bufferView" : 9,
            "componentType" : 5126,
            "count" : 360,
            "max" : [
                1.6265380382537842,
                0.4988110065460205,
                7.391564846038818
            ],
            "min" : [
                -7.423348903656006,
                0.08844184130430222,
                -1.6255848407745361
            ],
            "type" : "VEC3"
        },
        {
            "bufferView" : 10,
            "componentType" : 5126,
            "count" : 360,
            "type" : "VEC3"
        },
        {
            "bufferView" : 11,
            "componentType" : 5126,
            "count" : 360,
            "type" : "VEC2"
        },
        {
            "bufferView" : 12,
            "componentType" : 5123,
            "count" : 1020,
            "type" : "SCALAR"
        },
        {
            "bufferView" : 14,
            "componentType" : 5126,
            "count" : 2592,
            "max" : [
                1.6883680820465088,
                0.5872516632080078,
                7.453035831451416
            ],
            "min" : [
                -7.485180377960205,
                -7.450580596923828e-09,
                -1.6870536804199219
            ],
            "type" : "VEC3"
        },
        {
            "bufferView" : 15,
            "componentType" : 5126,
            "count" : 2592,
            "type" : "VEC3"
        },
        {
            "bufferView" : 16,
            "componentType" : 5126,
            "count" : 2592,
            "type" : "VEC2"
        },
        {
            "bufferView" : 17,
            "componentType" : 5123,
            "count" : 12960,
            "type" : "SCALAR"
        }
    ],
    "bufferViews" : [
        {
            "buffer" : 0,
            "byteLength" : 14880,
            "byteOffset" : 0
        },
        {
            "buffer" : 0,
            "byteLength" : 14880,
            "byteOffset" : 14880
        },
        {
            "buffer" : 0,
            "byteLength" : 9920,
            "byteOffset" : 29760
        },
        {
            "buffer" : 0,
            "byteLength" : 8580,
            "byteOffset" : 39680
        },
        {
            "buffer" : 0,
            "byteLength" : 44326,
            "byteOffset" : 48260
        },
        {
            "buffer" : 0,
            "byteLength" : 4224,
            "byteOffset" : 92588
        },
        {
            "buffer" : 0,
            "byteLength" : 4224,
            "byteOffset" : 96812
        },
        {
            "buffer" : 0,
            "byteLength" : 2816,
            "byteOffset" : 101036
        },
        {
            "buffer" : 0,
            "byteLength" : 2040,
            "byteOffset" : 103852
        },
        {
            "buffer" : 0,
            "byteLength" : 4320,
            "byteOffset" : 105892
        },
        {
            "buffer" : 0,
            "byteLength" : 4320,
            "byteOffset" : 110212
        },
        {
            "buffer" : 0,
            "byteLength" : 2880,
            "byteOffset" : 114532
        },
        {
            "buffer" : 0,
            "byteLength" : 2040,
            "byteOffset" : 117412
        },
        {
            "buffer" : 0,
            "byteLength" : 27121,
            "byteOffset" : 119452
        },
        {
            "buffer" : 0,
            "byteLength" : 31104,
            "byteOffset" : 146576
        },
        {
            "buffer" : 0,
            "byteLength" : 31104,
            "byteOffset" : 177680
        },
        {
            "buffer" : 0,
            "byteLength" : 20736,
            "byteOffset" : 208784
        },
        {
            "buffer" : 0,
            "byteLength" : 25920,
            "byteOffset" : 229520
        },
        {
            "buffer" : 0,
            "byteLength" : 39894,
            "byteOffset" : 255440
        }
    ],
    "samplers" : [
        {
            "magFilter" : 9729,
            "minFilter" : 9987
        }
    ],
    "buffers" : [
        {
            "byteLength" : 295336,
            "uri" : "data:application/octet-stream;base64,"
        }
    ]
}
